HIERARCHY
ROOT joint_Root
{
	OFFSET 0.0 0.0 0.0
	CHANNELS 6 Xposition Yposition Zposition Zrotation Xrotation Yrotation 
	JOINT Hips
	{
		OFFSET 4.5925 91.4895 -427.239
		CHANNELS 6 Xposition Yposition Zposition Zrotation Xrotation Yrotation 
		JOINT Spine
		{
			OFFSET 15.7357 0.0 0.0
			CHANNELS 6 Xposition Yposition Zposition Zrotation Xrotation Yrotation 
			JOINT Chest
			{
				OFFSET 8.98455 -0.406207 0.0
				CHANNELS 6 Xposition Yposition Zposition Zrotation Xrotation Yrotation 
				JOINT Neck
				{
					OFFSET 16.3773 0.0 0.0
					CHANNELS 6 Xposition Yposition Zposition Zrotation Xrotation Yrotation 
					JOINT Head
					{
						OFFSET 6.45672 0.0 0.0
						CHANNELS 6 Xposition Yposition Zposition Zrotation Xrotation Yrotation 
						End Site
						{
							OFFSET 0.0 0.0 0.0
						}
					}
				}
				JOINT Shoulder_L
				{
					OFFSET 12.9942 -0.242716 4.98039
					CHANNELS 6 Xposition Yposition Zposition Zrotation Xrotation Yrotation 
					JOINT UpperArm_L
					{
						OFFSET 5.34809 0.0 0.0
						CHANNELS 6 Xposition Yposition Zposition Zrotation Xrotation Yrotation 
						JOINT LowerArm_L
						{
							OFFSET 24.3286 1.87007e-05 0.0
							CHANNELS 6 Xposition Yposition Zposition Zrotation Xrotation Yrotation 
							JOINT Hand_L
							{
								OFFSET 22.2916 0.0 0.0
								CHANNELS 6 Xposition Yposition Zposition Zrotation Xrotation Yrotation 
								End Site
								{
									OFFSET 0.0 0.0 0.0
								}
							}
						}
					}
				}
				JOINT Shoulder_R
				{
					OFFSET 12.9945 -0.242716 -4.98039
					CHANNELS 6 Xposition Yposition Zposition Zrotation Xrotation Yrotation 
					JOINT UpperArm_R
					{
						OFFSET -5.34813 0.0 0.0
						CHANNELS 6 Xposition Yposition Zposition Zrotation Xrotation Yrotation 
						JOINT LowerArm_R
						{
							OFFSET -24.3289 0.000322201 0.0
							CHANNELS 6 Xposition Yposition Zposition Zrotation Xrotation Yrotation 
							JOINT Hand_R
							{
								OFFSET -22.2915 -0.000108084 0.0
								CHANNELS 6 Xposition Yposition Zposition Zrotation Xrotation Yrotation 
								End Site
								{
									OFFSET 0.0 0.0 0.0
								}
							}
						}
					}
				}
			}
		}
		JOINT UpperLeg_L
		{
			OFFSET -2.19248 -6.46944 0.0
			CHANNELS 6 Xposition Yposition Zposition Zrotation Xrotation Yrotation 
			JOINT LowerLeg_L
			{
				OFFSET 39.0811 0.0 -1.23785e-05
				CHANNELS 6 Xposition Yposition Zposition Zrotation Xrotation Yrotation 
				JOINT Foot_L
				{
					OFFSET 40.9854 0.0 -1.26872e-05
					CHANNELS 6 Xposition Yposition Zposition Zrotation Xrotation Yrotation 
					JOINT Toes_L
					{
						OFFSET 11.7543 0.0 0.0
						CHANNELS 6 Xposition Yposition Zposition Zrotation Xrotation Yrotation 
						End Site
						{
							OFFSET 0.0 0.0 0.0
						}
					}
				}
			}
		}
		JOINT UpperLeg_R
		{
			OFFSET -2.19251 6.46944 0.0
			CHANNELS 6 Xposition Yposition Zposition Zrotation Xrotation Yrotation 
			JOINT LowerLeg_R
			{
				OFFSET -39.0811 -0.00228153 -0.0401928
				CHANNELS 6 Xposition Yposition Zposition Zrotation Xrotation Yrotation 
				JOINT Foot_R
				{
					OFFSET -40.9854 0.0 0.0
					CHANNELS 6 Xposition Yposition Zposition Zrotation Xrotation Yrotation 
					JOINT Toes_R
					{
						OFFSET -11.7543 0.0 0.0
						CHANNELS 6 Xposition Yposition Zposition Zrotation Xrotation Yrotation 
						End Site
						{
							OFFSET 0.0 0.0 0.0
						}
					}
				}
			}
		}
	}
}
MOTION
Frames:	9
Frame Time:	0.0333333
0.000000 0.000000 0.000000 0.000000 0.000000 -0.000000 -1.288720 84.763500 -49.910100 88.715400 -1.406310 4.596200 15.735700 0.000005 -0.000001 90.288000 82.167300 -88.748800 8.984550 -0.406207 -0.000000 7.900030 0.080234 3.069840 16.377300 -0.000001 -0.000001 -3.249660 -3.589600 1.492490 6.456720 -0.000001 -0.000000 -6.733690 -2.665210 -0.483473 12.994200 -0.242716 4.980390 -90.864200 3.521100 -76.200600 5.348090 -0.000007 -0.000001 -64.604600 31.080000 -4.583200 24.328600 0.000019 0.000005 13.583300 3.099520 -77.386600 22.291600 -0.000001 0.000005 25.456900 5.568420 -9.608300 12.994500 -0.242716 -4.980390 88.988100 8.824630 -83.432300 -5.348130 -0.000001 -0.000004 -56.830300 15.692900 -28.189500 -24.328900 0.000322 -0.000009 -15.656000 3.692320 -102.941000 -22.291500 -0.000108 -0.000004 29.424000 5.654560 -15.467500 -2.192480 -6.469440 -0.000000 -176.994000 -5.165970 -27.330100 39.081100 -0.000007 -0.000012 0.021255 -0.001001 87.281700 40.985400 -0.000006 -0.000013 6.897380 -4.574520 -54.852900 11.754300 -0.000000 0.000003 -0.002854 -0.038949 -18.160700 -2.192510 6.469440 -0.000001 -177.784000 13.858200 159.459000 -39.081100 -0.002282 -0.040193 0.099784 -0.067126 55.193600 -40.985400 0.000008 0.000006 8.222010 -1.893760 -80.413800 -11.754300 -0.000006 -0.000006 -0.001128 -0.017215 -17.273200
0.000000 0.000000 0.000000 0.000000 0.000000 -0.000000 -1.328860 84.859400 -44.441000 89.094800 -3.286300 3.984940 15.735700 0.000005 -0.000001 95.987900 82.166900 -94.766100 8.984550 -0.406207 -0.000000 7.800790 1.627930 2.330230 16.377300 -0.000001 -0.000001 -3.325620 -3.158520 2.050300 6.456720 -0.000001 -0.000000 -6.742800 -2.638320 -0.773830 12.994200 -0.242716 4.980390 -90.995300 3.738720 -75.080800 5.348090 -0.000007 -0.000001 -65.544800 32.427000 6.615620 24.328600 0.000019 0.000005 13.738200 3.125550 -77.428500 22.291600 -0.000001 0.000005 25.308700 5.575900 -9.994470 12.994500 -0.242716 -4.980390 89.235900 7.878420 -84.443000 -5.348130 -0.000001 -0.000004 -57.265000 10.878400 -40.538200 -24.328900 0.000322 -0.000009 -14.087000 4.133650 -106.027000 -22.291500 -0.000108 -0.000004 28.955600 5.657760 -15.810100 -2.192480 -6.469440 -0.000000 -178.133000 -6.825250 -32.527900 39.081100 -0.000007 -0.000012 0.041646 -0.004521 83.793300 40.985400 -0.000006 -0.000013 5.725060 -2.168940 -58.298200 11.754300 -0.000000 0.000003 -0.003969 -0.051120 -18.656200 -2.192510 6.469440 -0.000001 -179.375000 13.609900 163.723000 -39.081100 -0.002282 -0.040193 0.076180 -0.052923 54.039400 -40.985400 0.000008 0.000006 7.716490 -0.201911 -83.282900 -11.754300 -0.000006 -0.000006 -0.623209 -0.764619 -17.293700
0.000000 0.000000 0.000000 0.000000 0.000000 -0.000000 -1.180200 85.764300 -38.747400 89.785700 -4.873930 2.943190 15.735700 0.000005 -0.000001 102.623000 82.366600 -101.911000 8.984550 -0.406207 -0.000000 7.120520 3.320480 1.215340 16.377300 -0.000001 -0.000001 -3.256420 -2.958260 2.379560 6.456720 -0.000001 -0.000000 -6.678640 -3.602110 -0.559171 12.994200 -0.242716 4.980390 -90.734900 2.505860 -73.648300 5.348090 -0.000007 -0.000001 -68.385300 33.925100 16.884400 24.328600 0.000019 0.000005 8.962480 1.842250 -78.480400 22.291600 -0.000001 0.000005 24.392200 5.579480 -10.186300 12.994500 -0.242716 -4.980390 89.482500 5.958810 -85.027000 -5.348130 -0.000001 -0.000004 -59.750900 7.260790 -48.392600 -24.328900 0.000322 -0.000009 -11.925900 4.097640 -108.692000 -22.291500 -0.000108 -0.000004 28.583200 5.661650 -16.252000 -2.192480 -6.469440 -0.000000 -179.977000 -8.431270 -35.461200 39.081100 -0.000007 -0.000012 0.043537 -0.012247 74.280700 40.985400 -0.000006 -0.000013 5.099680 -1.917580 -61.007500 11.754300 -0.000000 0.000003 -0.003530 -0.046470 -18.466800 -2.192510 6.469440 -0.000001 178.624000 12.730500 169.056000 -39.081100 -0.002282 -0.040193 0.051254 -0.040993 49.504400 -40.985400 0.000008 0.000006 7.053620 1.182530 -83.551400 -11.754300 -0.000006 -0.000006 -1.327230 -1.608650 -18.294200
0.000000 0.000000 0.000000 0.000000 0.000000 -0.000000 -0.981897 87.082200 -32.817100 90.497800 -5.323850 1.753600 15.735700 0.000005 -0.000001 109.156000 82.647600 -108.988000 8.984550 -0.406207 -0.000000 6.134240 4.809560 0.078686 16.377300 -0.000001 -0.000001 -3.129440 -3.506820 2.739470 6.456720 -0.000001 -0.000000 -6.508950 -4.764780 -0.515267 12.994200 -0.242716 4.980390 -90.142500 0.478759 -73.429000 5.348090 -0.000007 -0.000001 -72.223700 33.771100 25.651600 24.328600 0.000019 0.000005 6.263160 1.163300 -79.519800 22.291600 -0.000001 0.000005 22.964100 5.583560 -10.404800 12.994500 -0.242716 -4.980390 89.630700 3.711510 -84.313400 -5.348130 -0.000001 -0.000004 -61.802200 5.733490 -51.706600 -24.328900 0.000322 -0.000009 -13.058100 4.993550 -110.570000 -22.291500 -0.000108 -0.000004 29.969000 5.659150 -15.961500 -2.192480 -6.469440 -0.000000 178.082000 -8.815160 -35.689100 39.081100 -0.000007 -0.000012 0.027445 -0.016314 59.263800 40.985400 -0.000006 -0.000013 4.186400 -4.156780 -62.095600 11.754300 -0.000000 0.000003 -0.003513 -0.046283 -18.459300 -2.192510 6.469440 -0.000001 176.657000 11.928500 174.370000 -39.081100 -0.002282 -0.040193 0.026936 -0.024463 44.054100 -40.985400 0.000008 0.000006 6.235040 2.336410 -80.067100 -11.754300 -0.000006 -0.000006 -1.033040 -1.197030 -20.898800
0.000000 0.000000 0.000000 0.000000 0.000000 -0.000000 -0.869448 88.271800 -26.605200 90.463100 -5.451690 0.453828 15.735700 0.000005 -0.000001 113.339000 83.010600 -113.546000 8.984550 -0.406207 -0.000000 5.098000 5.531280 -0.660486 16.377300 -0.000001 -0.000001 -3.233730 -3.996020 3.063230 6.456720 -0.000001 -0.000000 -6.239220 -5.275520 -0.006876 12.994200 -0.242716 4.980390 -89.591300 -1.384380 -73.551200 5.348090 -0.000007 -0.000001 -75.201100 31.428400 32.153600 24.328600 0.000019 0.000005 7.390640 1.278560 -80.239500 22.291600 -0.000001 0.000005 21.446200 5.587760 -10.637100 12.994500 -0.242716 -4.980390 89.724100 2.593640 -83.925500 -5.348130 -0.000001 -0.000004 -61.885300 6.002930 -51.547100 -24.328900 0.000322 -0.000009 -16.851500 6.777360 -111.286000 -22.291500 -0.000108 -0.000004 30.927600 5.658610 -15.900900 -2.192480 -6.469440 -0.000000 177.244000 -9.305080 -33.394500 39.081100 -0.000007 -0.000012 0.016577 -0.019030 41.055700 40.985400 -0.000006 -0.000013 2.829030 -4.213370 -61.928200 11.754300 -0.000000 0.000003 -0.003533 -0.046494 -18.467800 -2.192510 6.469440 -0.000001 175.419000 11.800200 177.607000 -39.081100 -0.002282 -0.040193 0.041053 -0.042138 41.878700 -40.985400 0.000008 0.000006 6.093770 3.886270 -73.699400 -11.754300 -0.000006 -0.000006 -0.042877 -0.271381 -27.729500
0.000000 0.000000 0.000000 0.000000 0.000000 -0.000000 -0.783104 89.063100 -19.777000 89.001100 -6.220900 0.486864 15.735700 0.000005 -0.000001 116.858000 82.961300 -116.843000 8.984550 -0.406207 -0.000000 4.815680 6.347310 -0.237439 16.377300 -0.000001 -0.000001 -3.265890 -4.211070 2.983130 6.456720 -0.000001 -0.000000 -5.728940 -5.830340 0.575762 12.994200 -0.242716 4.980390 -89.163100 -2.826350 -73.498500 5.348090 -0.000007 -0.000001 -77.073800 28.366900 35.013900 24.328600 0.000019 0.000005 10.644800 1.924120 -79.872200 22.291600 -0.000001 0.000005 19.836000 5.591290 -10.834600 12.994500 -0.242716 -4.980390 89.724100 2.552750 -83.829300 -5.348130 -0.000001 -0.000004 -60.758100 7.718060 -48.303000 -24.328900 0.000322 -0.000009 -17.920000 7.191510 -111.162000 -22.291500 -0.000108 -0.000004 30.185500 5.657070 -15.730400 -2.192480 -6.469440 -0.000000 178.169000 -10.352700 -30.508900 39.081100 -0.000007 -0.000012 0.109451 -0.201622 28.495400 40.985400 -0.000006 -0.000013 3.366480 -1.561470 -62.393300 11.754300 -0.000000 0.000003 -0.004693 -0.058474 -18.955800 -2.192510 6.469440 -0.000001 175.754000 9.932480 -179.608000 -39.081100 -0.002282 -0.040193 0.076138 -0.079617 42.464900 -40.985400 0.000008 0.000006 6.062800 4.705100 -64.686300 -11.754300 -0.000006 -0.000006 -0.118210 -0.487659 -37.024400
0.000000 0.000000 0.000000 0.000000 0.000000 -0.000000 -0.546989 89.347400 -12.998900 87.834100 -6.722010 0.604425 15.735700 0.000005 -0.000001 117.696000 83.063500 -117.477000 8.984550 -0.406207 -0.000000 4.528280 6.430470 0.183083 16.377300 -0.000001 -0.000001 -2.990980 -4.284000 3.152160 6.456720 -0.000001 -0.000000 -5.529660 -6.064120 0.721371 12.994200 -0.242716 4.980390 -89.126100 -2.867240 -73.041200 5.348090 -0.000007 -0.000001 -76.777900 25.494600 34.431000 24.328600 0.000019 0.000005 16.048200 2.967220 -79.798400 22.291600 -0.000001 0.000005 19.148400 5.592920 -10.927800 12.994500 -0.242716 -4.980390 89.617600 3.646680 -84.010000 -5.348130 -0.000001 -0.000004 -58.641900 10.965900 -42.732600 -24.328900 0.000322 -0.000009 -17.138600 6.415340 -109.917000 -22.291500 -0.000108 -0.000004 29.251300 5.652690 -15.277500 -2.192480 -6.469440 -0.000000 179.355000 -10.210800 -29.594800 39.081100 -0.000007 -0.000012 0.109914 -0.224768 26.059200 40.985400 -0.000006 -0.000013 3.369920 -0.393761 -60.850500 11.754300 -0.000000 0.000003 -0.004965 -0.061139 -19.064400 -2.192510 6.469440 -0.000001 176.121000 8.289190 -179.558000 -39.081100 -0.002282 -0.040193 0.126377 -0.115102 46.927600 -40.985400 0.000008 0.000006 6.860430 5.135410 -55.370600 -11.754300 -0.000006 -0.000006 -0.128289 -0.509933 -38.015500
0.000000 0.000000 0.000000 0.000000 0.000000 -0.000000 -0.182556 88.785100 -6.244800 87.635300 -6.765590 1.284130 15.735700 0.000005 -0.000001 114.139000 83.058800 -114.023000 8.984550 -0.406207 -0.000000 4.915920 5.663100 -0.013093 16.377300 -0.000001 -0.000001 -2.899760 -3.983600 3.240620 6.456720 -0.000001 -0.000000 -5.837870 -5.983190 1.156830 12.994200 -0.242716 4.980390 -89.484500 -1.667620 -72.820000 5.348090 -0.000007 -0.000001 -74.678500 22.801700 31.143100 24.328600 0.000019 0.000005 19.256100 3.253620 -80.771800 22.291600 -0.000001 0.000005 20.533100 5.600170 -11.351400 12.994500 -0.242716 -4.980390 89.468400 5.282500 -84.244900 -5.348130 -0.000001 -0.000004 -56.500800 15.402700 -36.503800 -24.328900 0.000322 -0.000009 -17.274900 5.393780 -106.818000 -22.291500 -0.000108 -0.000004 28.625400 5.653140 -15.323200 -2.192480 -6.469440 -0.000000 -180.000000 -8.564770 -29.482600 39.081100 -0.000007 -0.000012 0.057413 -0.090651 32.347300 40.985400 -0.000006 -0.000013 3.307510 -1.761440 -53.499200 11.754300 -0.000000 0.000003 -0.003743 -0.048749 -18.559600 -2.192510 6.469440 -0.000001 175.696000 6.874080 177.681000 -39.081100 -0.002282 -0.040193 0.171827 -0.113952 55.947300 -40.985400 0.000008 0.000006 5.393690 3.592970 -46.341200 -11.754300 -0.000006 -0.000006 -0.036111 -0.244220 -26.594700
0.000000 0.000000 0.000000 0.000000 0.000000 -0.000000 0.158517 87.522600 0.216061 88.207500 -6.469350 1.978710 15.735700 0.000005 -0.000001 107.957000 83.066700 -108.146000 8.984550 -0.406207 -0.000000 5.443960 4.269200 -0.579594 16.377300 -0.000001 -0.000001 -3.264090 -3.627410 2.826240 6.456720 -0.000001 -0.000000 -5.709620 -5.465080 1.675830 12.994200 -0.242716 4.980390 -90.116700 0.384894 -73.129100 5.348090 -0.000007 -0.000001 -71.531600 20.509400 25.789300 24.328600 0.000019 0.000005 18.439300 2.589750 -82.282600 22.291600 -0.000001 0.000005 24.058100 5.603320 -11.543000 12.994500 -0.242716 -4.980390 89.305100 7.012650 -84.326300 -5.348130 -0.000001 -0.000004 -55.237600 20.857900 -30.229200 -24.328900 0.000322 -0.000009 -16.401900 3.350700 -101.228000 -22.291500 -0.000108 -0.000004 29.908200 5.668090 -17.049000 -2.192480 -6.469440 -0.000000 179.713000 -6.768120 -29.863100 39.081100 -0.000007 -0.000012 -0.140754 0.152069 42.787600 40.985400 -0.000006 -0.000013 2.630470 -3.164420 -61.360700 11.754300 -0.000000 0.000003 -0.000000 -0.000005 -16.577700 -2.192510 6.469440 -0.000001 175.190000 6.197960 173.234000 -39.081100 -0.002282 -0.040193 0.194472 -0.082914 66.569200 -40.985400 0.000008 0.000006 5.003380 -2.727860 -44.746400 -11.754300 -0.000006 -0.000006 -0.015302 -0.139712 -22.273800
